<svg width="122" height="122" viewBox="0 0 122 122" fill="none" xmlns="http://www.w3.org/2000/svg">
<path d="M0 60.8505C0 27.2437 27.2437 0 60.8505 0C94.4573 0 121.701 27.2437 121.701 60.8505C121.701 94.4573 94.4573 121.701 60.8505 121.701H0V60.8505Z" fill="#F24E1E"/>
<path d="M66.841 109.379C66.8996 109.438 66.9912 109.467 67.1158 109.467C67.2403 109.467 67.3466 109.442 67.4345 109.39C67.244 108.276 67.1158 107.617 67.0498 107.412C66.9692 107.199 66.8483 107.093 66.6871 107.093C66.6138 107.093 66.5259 107.115 66.4233 107.159L66.841 109.379ZM64.6646 112.677C64.5913 112.779 64.5547 112.875 64.5547 112.963C64.5547 113.175 64.7525 113.355 65.1482 113.501C65.5513 113.64 66.0386 113.728 66.6101 113.765C66.7054 114.82 66.808 115.421 66.9179 115.568C66.7787 115.839 66.394 116.114 65.7638 116.392C65.1336 116.663 64.4228 116.799 63.6314 116.799C62.5835 116.799 61.6858 116.575 60.9384 116.128C60.191 115.674 59.8172 115.091 59.8172 114.38C59.8172 114.19 59.8355 114.021 59.8722 113.875L62.2134 103.411C62.7997 103.037 63.4995 102.744 64.3129 102.531C65.1263 102.319 65.9726 102.213 66.852 102.213C68.1124 102.213 69.1896 102.425 70.0836 102.85C71.1021 103.334 71.7213 104.034 71.9412 104.95L74.4473 115.315C73.6852 116.304 72.4431 116.799 70.7211 116.799C69.8857 116.799 69.1786 116.648 68.5997 116.348C68.0208 116.048 67.6837 115.619 67.5884 115.062L67.3466 113.721C67.7863 113.714 68.2113 113.629 68.6216 113.468C69.032 113.307 69.2372 113.138 69.2372 112.963C69.2372 112.845 69.1896 112.75 69.0943 112.677C68.8158 112.875 68.4751 113.025 68.0721 113.127C67.669 113.23 67.2953 113.281 66.9509 113.281C65.9616 113.281 65.1995 113.08 64.6646 112.677Z" fill="white"/>
<path d="M52.7605 104.51V105.005C52.4674 105.613 52.2439 106.089 52.09 106.433C51.9361 106.771 51.8592 107.001 51.8592 107.126C51.8592 107.338 51.9801 107.445 52.2219 107.445L54.3873 102.696C54.8929 102.366 55.5817 102.202 56.4538 102.202C57.3331 102.202 58.0879 102.443 58.7181 102.927C59.4069 103.469 59.7513 104.209 59.7513 105.147C59.7513 105.931 59.4838 106.705 58.9489 107.467C58.414 108.221 57.7142 108.877 56.8495 109.434C56.4464 109.207 56.0837 109.093 55.7613 109.093C55.4389 109.093 55.2776 109.251 55.2776 109.566C55.6147 109.632 55.9188 109.727 56.19 109.852C56.4684 109.969 56.7945 110.2 57.1682 110.544L60.092 113.237C59.8795 115.612 58.6924 116.799 56.5307 116.799C55.732 116.799 55.0468 116.594 54.4752 116.183C53.8011 115.707 53.2735 114.981 52.8924 114.007L51.8702 111.457H51.8152C51.5734 111.457 51.4525 111.559 51.4525 111.764C51.4525 111.896 51.5551 112.215 51.7603 112.721C51.9655 113.27 52.2732 114.003 52.6836 114.919V115.765C51.9142 116.454 50.7967 116.799 49.3311 116.799C48.5397 116.799 47.8619 116.619 47.2976 116.26C46.6601 115.872 46.3413 115.318 46.3413 114.6V103.257C47.0961 102.568 48.2429 102.224 49.7818 102.224C50.5805 102.224 51.2583 102.392 51.8152 102.729C52.4454 103.132 52.7605 103.726 52.7605 104.51Z" fill="white"/>
<path d="M38.5811 104.51V105.005C38.288 105.613 38.0645 106.089 37.9106 106.433C37.7568 106.771 37.6798 107.001 37.6798 107.126C37.6798 107.338 37.8007 107.445 38.0425 107.445L40.2079 102.696C40.7135 102.366 41.4024 102.202 42.2744 102.202C43.1537 102.202 43.9085 102.443 44.5387 102.927C45.2275 103.469 45.5719 104.209 45.5719 105.147C45.5719 105.931 45.3044 106.705 44.7695 107.467C44.2346 108.221 43.5348 108.877 42.6701 109.434C42.2671 109.207 41.9043 109.093 41.5819 109.093C41.2595 109.093 41.0983 109.251 41.0983 109.566C41.4353 109.632 41.7394 109.727 42.0106 109.852C42.289 109.969 42.6151 110.2 42.9888 110.544L45.9127 113.237C45.7001 115.612 44.513 116.799 42.3513 116.799C41.5526 116.799 40.8674 116.594 40.2959 116.183C39.6217 115.707 39.0941 114.981 38.713 114.007L37.6908 111.457H37.6358C37.394 111.457 37.2731 111.559 37.2731 111.764C37.2731 111.896 37.3757 112.215 37.5809 112.721C37.7861 113.27 38.0938 114.003 38.5042 114.919V115.765C37.7348 116.454 36.6173 116.799 35.1517 116.799C34.3603 116.799 33.6825 116.619 33.1182 116.26C32.4807 115.872 32.1619 115.318 32.1619 114.6V103.257C32.9167 102.568 34.0635 102.224 35.6024 102.224C36.4011 102.224 37.0789 102.392 37.6358 102.729C38.266 103.132 38.5811 103.726 38.5811 104.51Z" fill="white"/>
<path d="M24.8964 109.016C24.8964 108.284 24.8634 107.782 24.7975 107.511C24.7315 107.232 24.6106 107.093 24.4347 107.093C24.3248 107.093 24.2259 107.13 24.1379 107.203C24.1526 107.335 24.1746 107.511 24.2039 107.73C24.2332 107.95 24.2479 108.419 24.2479 109.137V109.852C24.2479 110.35 24.2369 110.713 24.2149 110.94C24.1929 111.167 24.1746 111.361 24.1599 111.523C24.1526 111.611 24.1453 111.698 24.1379 111.786C24.2259 111.86 24.3248 111.896 24.4347 111.896C24.6106 111.896 24.7315 111.761 24.7975 111.49C24.8634 111.211 24.8964 110.706 24.8964 109.973V109.016ZM24.4567 116.953C23.1523 116.953 21.9542 116.685 20.8624 116.15C19.7779 115.608 18.9022 114.783 18.2354 113.677C17.5685 112.563 17.2351 111.174 17.2351 109.511C17.2351 107.1 17.9606 105.217 19.4115 103.861C20.7012 102.667 22.3609 102.07 24.3908 102.07C26.5964 102.07 28.3405 102.755 29.6228 104.125C30.9125 105.488 31.5574 107.283 31.5574 109.511C31.5574 111.988 30.8686 113.878 29.4909 115.183C28.2379 116.363 26.5598 116.953 24.4567 116.953Z" fill="white"/>
<path d="M14.0695 108.038V115.765C13.7324 116.059 13.2817 116.304 12.7175 116.502C12.1532 116.7 11.4681 116.799 10.662 116.799C9.85595 116.799 9.1708 116.619 8.60655 116.26C7.96903 115.872 7.65027 115.322 7.65027 114.611V107.533H5.08918C4.56158 106.778 4.29778 105.953 4.29778 105.059C4.29778 104.451 4.39304 103.924 4.58356 103.477C4.78141 103.022 5.02323 102.671 5.30902 102.421H16.6745C16.887 102.751 17.0629 103.151 17.2021 103.619C17.3414 104.088 17.411 104.554 17.411 105.015C17.411 105.88 17.2204 106.518 16.8394 106.928C16.4583 107.331 15.9454 107.533 15.3005 107.533H12.08C12.058 107.584 12.047 107.639 12.047 107.697C12.047 107.829 12.1239 107.917 12.2778 107.961C12.439 108.013 12.7834 108.038 13.311 108.038H14.0695Z" fill="white"/>
</svg>
